<?xml version="1.0" encoding="UTF-8" standalone="no"?>
<!-- Created with Inkscape (http://www.inkscape.org/) -->

<svg
   xmlns:dc="http://purl.org/dc/elements/1.1/"
   xmlns:cc="http://creativecommons.org/ns#"
   xmlns:rdf="http://www.w3.org/1999/02/22-rdf-syntax-ns#"
   xmlns:svg="http://www.w3.org/2000/svg"
   xmlns="http://www.w3.org/2000/svg"
   xmlns:sodipodi="http://sodipodi.sourceforge.net/DTD/sodipodi-0.dtd"
   xmlns:inkscape="http://www.inkscape.org/namespaces/inkscape"
   width="210mm"
   height="297mm"
   id="svg2"
   version="1.1"
   inkscape:version="0.48.1 r9760"
   sodipodi:docname="mini.svg">
  <defs
     id="defs4" />
  <sodipodi:namedview
     id="base"
     pagecolor="#ffffff"
     bordercolor="#666666"
     borderopacity="1.0"
     inkscape:pageopacity="0.0"
     inkscape:pageshadow="2"
     inkscape:zoom="0.7"
     inkscape:cx="168.73073"
     inkscape:cy="523.77887"
     inkscape:document-units="px"
     inkscape:current-layer="layer1"
     showgrid="false"
     inkscape:window-width="1281"
     inkscape:window-height="899"
     inkscape:window-x="0"
     inkscape:window-y="0"
     inkscape:window-maximized="0"
     showguides="true"
     inkscape:guide-bbox="true">
    <sodipodi:guide
       orientation="0,1"
       position="589.92909,462.14479"
       id="guide3800" />
    <sodipodi:guide
       orientation="1,0"
       position="206.5762,462.14479"
       id="guide3807" />
  </sodipodi:namedview>
  <metadata
     id="metadata7">
    <rdf:RDF>
      <cc:Work
         rdf:about="">
        <dc:format>image/svg+xml</dc:format>
        <dc:type
           rdf:resource="http://purl.org/dc/dcmitype/StillImage" />
        <dc:title></dc:title>
      </cc:Work>
    </rdf:RDF>
  </metadata>
  <g
     inkscape:label="Ebene 1"
     inkscape:groupmode="layer"
     id="layer1">
    <path
       style="fill:#000000;stroke:#000000;stroke-width:1px;stroke-linecap:butt;stroke-linejoin:miter;stroke-opacity:1;fill-opacity:1"
       d="M 404.59375 424.8125 C 377.62809 424.88433 356.96391 425.18116 352.78125 425.8125 C 344.44749 426.82266 336.90038 430.10469 334.375 432.125 C 326.79886 434.90292 273.24413 481.6131 270.71875 485.90625 C 266.67814 482.62325 262.63769 488.18829 261.375 491.21875 C 190.66432 490.96621 153.02538 508.38087 150.5 510.90625 C 139.38832 513.68417 126.53712 532.9053 129.0625 539.21875 C 128.30488 545.5322 127.53633 546.51348 127.03125 548.28125 C 127.03125 548.28125 117.42989 553.59708 118.1875 556.375 C 114.65197 559.40546 119.45019 590.22541 118.1875 595.78125 C 115.40958 595.52871 116.9375 598.29727 116.9375 599.8125 C 120.47303 606.88357 122.99318 606.36992 126.78125 606.875 L 143.4375 606.875 L 149.46875 605.75 C 159.57028 495.1383 267.67656 528.10499 265.65625 610.9375 C 276.76793 612.70527 529.07091 606.12754 531.34375 605.875 C 536.89959 510.92066 640.67814 524.30201 644.71875 593.75 C 653.30505 599.0533 658.625 594.75 658.625 594.75 C 664.43338 590.45685 660.57105 580.67571 659.625 578.59375 C 667.45368 552.32978 667.714 554.35835 649.53125 540.46875 C 650.5414 518.75047 649.53078 488.43925 627.8125 485.15625 C 626.80234 479.60041 595.98906 439.70273 593.96875 438.1875 C 596.99921 435.40958 592.96875 432.125 592.96875 432.125 C 583.3723 426.8217 565.9375 426.0625 565.9375 426.0625 C 553.7841 425.54164 463.9182 424.65448 404.59375 424.8125 z M 332.34375 434.65625 L 345.46875 435.90625 C 345.46875 435.90625 294.46463 483.89514 288.65625 491.21875 C 282.84787 489.70352 274.79163 489.42807 271.21875 486.6875 C 273.23906 483.15197 327.54552 435.91894 332.34375 434.65625 z M 469.21875 436.40625 L 572 437.4375 C 574.52538 438.70019 598.5 481.62833 598.5 484.40625 C 583.85278 484.40625 474.01951 486.68242 468.96875 487.1875 L 469.21875 436.40625 z M 358.84375 436.9375 L 464.40625 436.9375 L 463.65625 487.9375 C 455.06995 487.68496 345.21875 494 345.21875 494 C 346.73398 493.24239 346.99413 477.83788 344.46875 475.3125 C 338.66037 474.30234 321.22383 477.33011 320.71875 484.90625 C 320.71875 484.90625 322.73651 489.21447 320.96875 492.75 L 299.25 492.75 C 302.02792 488.20432 350.00492 442.99842 358.84375 436.9375 z M 635.5 495.34375 C 650.16121 494.67695 649.25476 532.85287 648.78125 539.71875 L 638.90625 539.71875 C 639.91641 535.4256 635.37421 500.3244 632.34375 496.03125 C 633.46439 495.62088 634.52259 495.3882 635.5 495.34375 z M 166.3125 506.375 C 167.32555 506.34164 168.27205 506.41981 169.1875 506.625 C 181.05679 517.73668 140.42322 548.80076 135.625 543.75 C 126.39157 532.85929 151.11675 506.87533 166.3125 506.375 z "
       id="path2996" />
    <path
       style="fill:#000000;fill-opacity:1;fill-rule:nonzero;stroke:#000000;stroke-opacity:1;opacity:1"
       d="M 589.9375 543.25 C 563.99553 543.25 542.96875 564.27678 542.96875 590.21875 C 542.96875 616.16072 563.99553 637.1875 589.9375 637.1875 C 615.87947 637.1875 636.90625 616.16072 636.90625 590.21875 C 636.90625 564.27678 615.87947 543.25 589.9375 543.25 z M 589.9375 555.875 C 608.90582 555.875 624.28125 571.25043 624.28125 590.21875 C 624.28125 609.18707 608.90582 624.5625 589.9375 624.5625 C 570.96918 624.5625 555.59375 609.18707 555.59375 590.21875 C 555.59375 571.25043 570.96918 555.875 589.9375 555.875 z "
       id="path3802" />
    <path
       style="opacity:1;fill:#000000;fill-opacity:1;fill-rule:nonzero;stroke:#000000;stroke-opacity:1"
       d="M 206.5625 543.75 C 180.89948 543.75 160.09375 564.55573 160.09375 590.21875 C 160.09375 615.88177 180.89948 636.6875 206.5625 636.6875 C 232.22552 636.6875 253.03125 615.88177 253.03125 590.21875 C 253.03125 564.55573 232.22552 543.75 206.5625 543.75 z M 206.5625 555.875 C 225.53082 555.875 240.90625 571.25043 240.90625 590.21875 C 240.90625 609.18707 225.53082 624.5625 206.5625 624.5625 C 187.59418 624.5625 172.21875 609.18707 172.21875 590.21875 C 172.21875 571.25043 187.59418 555.875 206.5625 555.875 z "
       id="path3809" />
  </g>
</svg>
